# xmcd CD database file
# Copyright (C) 1993-1996 Ti Kan
#
# Track frame offsets:
# 150
# 10332
# 21177
# 30622
# 43257
# 54072
# 62607
# 74410
# 86600
# 97890
# 107902
# 119550
# 129667
# 140995
# 151985
# 163410
# 174107
# 182192
# 192217
# 203852
# 214132
# 226197
# 234647
# 245020
# 256940
# 268195
# 276955
# 288305
# 299200
# 308617
#
# Disc length: 4296 seconds
#
# Revision: 0
# Processed by: cddbd v1.4b41PL1 Copyright (c) Steve Scherf et al.
# Submitted via: inCDius 1.1b5
#
DISCID=c810c61e
DTITLE=George Jones - Rock It !
DYEAR=1900
DGENRE=
TTITLE0=Rock It
TTITLE1=How Come It
TTITLE2=Maybe Little Baby
TTITLE3=White Lightin'
TTITLE4=Who Shot Sam
TTITLE5=Heartbreak Hotel
TTITLE6=Boogie Woogie Mexican Boy
TTITLE7=Root Beer
TTITLE8=Running Bear
TTITLE9=Little Boy Blue
TTITLE10=Revenoover Man
TTITLE11=Slave Lover
TTITLE12=Gonna Come Get To You
TTITLE13=You Gotta Be My Baby
TTITLE14=Eskimo Pie
TTITLE15=No Money In This Deal
TTITLE16=Done Gone
TTITLE17=Better Stop Look And Listen
TTITLE18=Sparkling Brown Eyes
TTITLE19=I Wouldn't Know About That
TTITLE20=You Better Treat Your Man Right
TTITLE21=One Woman Man
TTITLE22=Why Baby Why
TTITLE23=Play It Cool Man
TTITLE24=Nothing Can Stop
TTITLE25=That's The Way I Feel
TTITLE26=Long Time To Forget
TTITLE27=Give Away Girl
TTITLE28=Vitamins Love
TTITLE29=Taggin' Along
EXTD=
EXTT0=
EXTT1=
EXTT2=
EXTT3=
EXTT4=
EXTT5=
EXTT6=
EXTT7=
EXTT8=
EXTT9=
EXTT10=
EXTT11=
EXTT12=
EXTT13=
EXTT14=
EXTT15=
EXTT16=
EXTT17=
EXTT18=
EXTT19=
EXTT20=
EXTT21=
EXTT22=
EXTT23=
EXTT24=
EXTT25=
EXTT26=
EXTT27=
EXTT28=
EXTT29=
PLAYORDER=
